# xmcd CD database file
#
# Track frame offsets:
#	150
#	15911
#	27795
#	46947
#	62283
#	81216
#	98563
#	111701
#	126414
#	141403
#	158240
#	175093
#	193544
#	209369
#	223947
#	236454
#	254028
#	273893
#
# Disc length: 3858 seconds
#
# Revision: 5
# Processed by: cddbd v1.5.2PL0 Copyright (c) Steve Scherf et al.
# Submitted via: CDex 1.70beta2
#
DISCID=fe0f1012
DTITLE=邓丽君 - 邓丽君纪念特辑 - 月亮代表我的心 Vol. 1
DYEAR=2005
DGENRE=Pop
TTITLE0=月亮代表我的心
TTITLE1=小城故事
TTITLE2=我只在乎你
TTITLE3=你怎么说
TTITLE4=酒醉的探戈
TTITLE5=偿还
TTITLE6=何日君再来
TTITLE7=夜来香
TTITLE8=难忘初恋的情人
TTITLE9=在水一方
TTITLE10=船歌
TTITLE11=但愿人长久
TTITLE12=千言万语
TTITLE13=海韵
TTITLE14=南海姑娘
TTITLE15=我和你
TTITLE16=恰似你的温柔
TTITLE17=甜蜜蜜
EXTD=YEAR: 2005
EXTT0=
EXTT1=
EXTT2=
EXTT3=
EXTT4=
EXTT5=
EXTT6=
EXTT7=
EXTT8=
EXTT9=
EXTT10=
EXTT11=
EXTT12=
EXTT13=
EXTT14=
EXTT15=
EXTT16=
EXTT17=
PLAYORDER=
